<svg width="36" height="35" viewBox="0 0 36 35" fill="none" xmlns="http://www.w3.org/2000/svg">
<path d="M28.1908 2.93414L32.5658 7.30914L29.2306 10.6458L24.8556 6.27081L28.1908 2.93414ZM12.1667 23.3333H16.5417L27.1685 12.7064L22.7935 8.33143L12.1667 18.9583V23.3333Z" fill="white"/>
<path d="M28.2083 27.7083H12.3971C12.3592 27.7083 12.3198 27.7229 12.2819 27.7229C12.2338 27.7229 12.1856 27.7098 12.136 27.7083H7.79167V7.29167H17.7769L20.6935 4.375H7.79167C6.18312 4.375 4.875 5.68167 4.875 7.29167V27.7083C4.875 29.3183 6.18312 30.625 7.79167 30.625H28.2083C28.9819 30.625 29.7237 30.3177 30.2707 29.7707C30.8177 29.2237 31.125 28.4819 31.125 27.7083V15.0675L28.2083 17.9842V27.7083Z" fill="white"/>
</svg>
