<svg width="41" height="40" viewBox="0 0 41 40" fill="none" xmlns="http://www.w3.org/2000/svg">
<path d="M30.5 11.6667V28.3333" stroke="white" stroke-width="1.5" stroke-linecap="round" stroke-linejoin="round"/>
<path d="M12.12 8.77833C11.9726 8.66183 11.7953 8.58923 11.6085 8.56884C11.4218 8.54844 11.233 8.58108 11.0639 8.66301C10.8948 8.74495 10.7523 8.87286 10.6525 9.03209C10.5528 9.19132 10.4999 9.37544 10.5 9.56333V30.4367C10.5002 30.6244 10.5533 30.8083 10.6532 30.9673C10.7531 31.1263 10.8957 31.2539 11.0647 31.3357C11.2337 31.4174 11.4223 31.4499 11.609 31.4294C11.7956 31.409 11.9727 31.3364 12.12 31.22L25.3383 20.785C25.4569 20.6914 25.5528 20.5721 25.6187 20.4362C25.6846 20.3002 25.7188 20.1511 25.7188 20C25.7188 19.8489 25.6846 19.6998 25.6187 19.5638C25.5528 19.4279 25.4569 19.3086 25.3383 19.215L12.12 8.77833Z" fill="white" stroke="white" stroke-width="1.5" stroke-linecap="round" stroke-linejoin="round"/>
</svg>
