<svg width="35" height="35" viewBox="0 0 35 35" fill="none" xmlns="http://www.w3.org/2000/svg">
<path fill-rule="evenodd" clip-rule="evenodd" d="M17.8172 6.01562C18.2159 5.02913 18.9605 4.22177 19.9116 3.74465C20.8626 3.26754 21.955 3.15337 22.9841 3.42351C24.0133 3.69366 24.9087 4.32961 25.5029 5.21232C26.097 6.09504 26.349 7.16401 26.2119 8.21916C26.0747 9.27431 25.5577 10.2433 24.7576 10.9448C23.9576 11.6463 22.9293 12.0321 21.8653 12.0301C20.8012 12.0282 19.7744 11.6385 18.977 10.9341C18.1795 10.2297 17.6661 9.25877 17.5328 8.20312H10.9375C10.0673 8.20312 9.23266 8.54882 8.61731 9.16418C8.00195 9.77953 7.65625 10.6141 7.65625 11.4844C7.65625 12.3546 8.00195 13.1892 8.61731 13.8046C9.23266 14.4199 10.0673 14.7656 10.9375 14.7656H26.25C27.7004 14.7656 29.0914 15.3418 30.117 16.3674C31.1426 17.393 31.7188 18.784 31.7188 20.2344C31.7188 21.6848 31.1426 23.0758 30.117 24.1014C29.0914 25.1269 27.7004 25.7031 26.25 25.7031H14.1859C14.0527 26.7588 13.5393 27.7297 12.7418 28.4341C11.9443 29.1385 10.9175 29.5282 9.85347 29.5301C8.78945 29.5321 7.76118 29.1462 6.96112 28.4448C6.16106 27.7433 5.64406 26.7743 5.5069 25.7192C5.36973 24.664 5.62179 23.595 6.2159 22.7123C6.81001 21.8296 7.70545 21.1937 8.73461 20.9235C9.76377 20.6534 10.8561 20.7675 11.8072 21.2447C12.7582 21.7218 13.5028 22.5291 13.9016 23.5156H26.25C27.1202 23.5156 27.9548 23.1699 28.5702 22.5546C29.1855 21.9392 29.5312 21.1046 29.5312 20.2344C29.5312 19.3641 29.1855 18.5295 28.5702 17.9142C27.9548 17.2988 27.1202 16.9531 26.25 16.9531H10.9375C9.4871 16.9531 8.0961 16.3769 7.07051 15.3514C6.04492 14.3258 5.46875 12.9348 5.46875 11.4844C5.46875 10.034 6.04492 8.64297 7.07051 7.61738C8.0961 6.59179 9.4871 6.01562 10.9375 6.01562H17.8172Z" fill="white"/>
</svg>
