<svg width="36" height="35" viewBox="0 0 36 35" fill="none" xmlns="http://www.w3.org/2000/svg">
<path fill-rule="evenodd" clip-rule="evenodd" d="M18.3172 6.01562C18.7159 5.02913 19.4605 4.22177 20.4116 3.74465C21.3626 3.26754 22.455 3.15337 23.4841 3.42351C24.5133 3.69366 25.4087 4.32961 26.0029 5.21232C26.597 6.09504 26.849 7.16401 26.7119 8.21916C26.5747 9.27431 26.0577 10.2433 25.2576 10.9448C24.4576 11.6463 23.4293 12.0321 22.3653 12.0301C21.3012 12.0282 20.2744 11.6385 19.477 10.9341C18.6795 10.2297 18.1661 9.25877 18.0328 8.20312H11.4375C10.5673 8.20312 9.73266 8.54882 9.11731 9.16418C8.50195 9.77953 8.15625 10.6141 8.15625 11.4844C8.15625 12.3546 8.50195 13.1892 9.11731 13.8046C9.73266 14.4199 10.5673 14.7656 11.4375 14.7656H26.75C28.2004 14.7656 29.5914 15.3418 30.617 16.3674C31.6426 17.393 32.2188 18.784 32.2188 20.2344C32.2188 21.6848 31.6426 23.0758 30.617 24.1014C29.5914 25.1269 28.2004 25.7031 26.75 25.7031H14.6859C14.5527 26.7588 14.0393 27.7297 13.2418 28.4341C12.4443 29.1385 11.4175 29.5282 10.3535 29.5301C9.28945 29.5321 8.26118 29.1462 7.46112 28.4448C6.66106 27.7433 6.14406 26.7743 6.0069 25.7192C5.86973 24.664 6.12179 23.595 6.7159 22.7123C7.31001 21.8296 8.20545 21.1937 9.23461 20.9235C10.2638 20.6534 11.3561 20.7675 12.3072 21.2447C13.2582 21.7218 14.0028 22.5291 14.4016 23.5156H26.75C27.6202 23.5156 28.4548 23.1699 29.0702 22.5546C29.6855 21.9392 30.0312 21.1046 30.0312 20.2344C30.0312 19.3641 29.6855 18.5295 29.0702 17.9142C28.4548 17.2988 27.6202 16.9531 26.75 16.9531H11.4375C9.9871 16.9531 8.5961 16.3769 7.57051 15.3514C6.54492 14.3258 5.96875 12.9348 5.96875 11.4844C5.96875 10.034 6.54492 8.64297 7.57051 7.61738C8.5961 6.59179 9.9871 6.01562 11.4375 6.01562H18.3172Z" fill="black"/>
</svg>
