<svg width="41" height="40" viewBox="0 0 41 40" fill="none" xmlns="http://www.w3.org/2000/svg">
<path d="M10.5 30.6667V9.33333C10.5 9.06811 10.6054 8.81376 10.7929 8.62622C10.9804 8.43869 11.2348 8.33333 11.5 8.33333H16.1667C16.4319 8.33333 16.6862 8.43869 16.8738 8.62622C17.0613 8.81376 17.1667 9.06811 17.1667 9.33333V30.6667C17.1667 30.9319 17.0613 31.1862 16.8738 31.3738C16.6862 31.5613 16.4319 31.6667 16.1667 31.6667H11.5C11.2348 31.6667 10.9804 31.5613 10.7929 31.3738C10.6054 31.1862 10.5 30.9319 10.5 30.6667ZM23.8333 30.6667V9.33333C23.8333 9.06811 23.9387 8.81376 24.1262 8.62622C24.3138 8.43869 24.5681 8.33333 24.8333 8.33333H29.5C29.7652 8.33333 30.0196 8.43869 30.2071 8.62622C30.3946 8.81376 30.5 9.06811 30.5 9.33333V30.6667C30.5 30.9319 30.3946 31.1862 30.2071 31.3738C30.0196 31.5613 29.7652 31.6667 29.5 31.6667H24.8333C24.5681 31.6667 24.3138 31.5613 24.1262 31.3738C23.9387 31.1862 23.8333 30.9319 23.8333 30.6667Z" fill="white" stroke="white" stroke-width="1.5"/>
</svg>
