<svg width="41" height="40" viewBox="0 0 41 40" fill="none" xmlns="http://www.w3.org/2000/svg">
<path d="M12.01 7.56167C11.8582 7.47165 11.6852 7.42342 11.5087 7.42188C11.3322 7.42034 11.1585 7.46554 11.0051 7.55289C10.8517 7.64025 10.7242 7.76664 10.6355 7.91923C10.5468 8.07181 10.5 8.24517 10.5 8.42167V31.5783C10.5 31.7548 10.5468 31.9282 10.6355 32.0808C10.7242 32.2334 10.8517 32.3598 11.0051 32.4471C11.1585 32.5345 11.3322 32.5797 11.5087 32.5781C11.6852 32.5766 11.8582 32.5284 12.01 32.4383L31.5483 20.86C31.6976 20.7715 31.8212 20.6456 31.907 20.4948C31.9929 20.344 32.038 20.1735 32.038 20C32.038 19.8265 31.9929 19.656 31.907 19.5052C31.8212 19.3544 31.6976 19.2285 31.5483 19.14L12.01 7.56167Z" fill="white" stroke="white" stroke-width="1.5" stroke-linecap="round" stroke-linejoin="round"/>
</svg>
