<svg width="41" height="40" viewBox="0 0 41 40" fill="none" xmlns="http://www.w3.org/2000/svg">
<path fill-rule="evenodd" clip-rule="evenodd" d="M33 31.2692C33 31.4965 32.9552 31.7216 32.8683 31.9316C32.7813 32.1416 32.6538 32.3324 32.4931 32.4931C32.3324 32.6538 32.1416 32.7813 31.9316 32.8683C31.7216 32.9552 31.4965 33 31.2692 33H9.73077C9.50348 33 9.27842 32.9552 9.06843 32.8683C8.85845 32.7813 8.66765 32.6538 8.50693 32.4931C8.34621 32.3324 8.21873 32.1416 8.13175 31.9316C8.04477 31.7216 8 31.4965 8 31.2692V9.73077C8 8.77436 8.77436 8 9.73077 8H31.2692C32.2256 8 33 8.77436 33 9.73077V31.2692Z" fill="white"/>
</svg>
